<svg xmlns="http://www.w3.org/2000/svg" xmlns:xlink="http://www.w3.org/1999/xlink" viewBox="578 3832.999 294.487 59.194"><defs><style>.a{fill:none;clip-rule:evenodd;}.b{clip-path:url(#a);}.c{fill:#fffefe;}.d{clip-path:url(#b);}.e{clip-path:url(#c);}.f{clip-path:url(#d);}.g{clip-path:url(#e);}.h{clip-path:url(#f);}.i{clip-path:url(#g);}.j{clip-path:url(#h);}.k{clip-path:url(#i);}.l{clip-path:url(#j);}.m{clip-path:url(#k);}.n{clip-path:url(#l);}.o{clip-path:url(#m);}.p{clip-path:url(#n);}.q{clip-path:url(#o);}.r{clip-path:url(#p);}.s{clip-path:url(#q);}.t{clip-path:url(#r);}.u{clip-path:url(#s);}.v{clip-path:url(#t);}.w{clip-path:url(#u);}.x{clip-path:url(#v);}.y{clip-path:url(#w);}.z{clip-path:url(#x);}.aa{clip-path:url(#y);}.ab{clip-path:url(#z);}.ac{clip-path:url(#aa);}.ad{clip-path:url(#ab);}.ae{clip-path:url(#ac);}.af{clip-path:url(#ad);}.ag{clip-path:url(#ae);}.ah{clip-path:url(#af);}.ai{clip-path:url(#ag);}.aj{clip-path:url(#ah);}.ak{clip-path:url(#ai);}.al{clip-path:url(#aj);}.am{clip-path:url(#ak);}.an{clip-path:url(#al);}.ao{clip-path:url(#am);}.ap{clip-path:url(#an);}</style><clipPath id="a"><path class="a" d="M89.956-31.274a3.988,3.988,0,0,1-1.367,3.31,4.945,4.945,0,0,1-3.255,1.1,5.085,5.085,0,0,1-3.292-1.116,3.966,3.966,0,0,1-1.367-3.292V-39.08H82.15v7.357a6.727,6.727,0,0,0,.126,1.583,2.24,2.24,0,0,0,.557.935,3.164,3.164,0,0,0,2.483,1.025A3.162,3.162,0,0,0,87.8-29.2a2.243,2.243,0,0,0,.558-.935,6.727,6.727,0,0,0,.126-1.583V-39.08h1.474v7.806" transform="translate(0 63)"/></clipPath><clipPath id="b"><path class="a" d="M103.291-27.1h-1.708l-5.99-9.264a1.968,1.968,0,0,0-.1-.171,2.746,2.746,0,0,1-.135-.243,5.707,5.707,0,0,1-.324-.719v10.289H93.56V-39.08h1.925l5.882,9.048c.036.06.066.107.09.143a.972.972,0,0,1,.072.135c.024.054.051.123.08.207s.076.2.135.342a.429.429,0,0,1,.028.072.656.656,0,0,0,.044.108V-39.08h1.475V-27.1" transform="translate(0 63)"/></clipPath><clipPath id="c"><path class="a" d="M107.2-27.208h1.475V-39.08H107.2Z" transform="translate(0 63)"/></clipPath><clipPath id="d"><path class="a" d="M120.97-39.08,116.365-26.9h-.9L110.789-39.08h1.583l3.507,9.263a2.287,2.287,0,0,1,.126.576,1.734,1.734,0,0,1,.108-.576L119.5-39.08h1.475" transform="translate(0 63)"/></clipPath><clipPath id="e"><path class="a" d="M129.943-27.208h-6.835V-39.08h6.673v1.241h-5.2v3.957h4.3v1.241h-4.3v4.191h5.36v1.242" transform="translate(0 63)"/></clipPath><clipPath id="f"><path class="a" d="M140.81-27.208h-1.691L135.845-32.3h-1.583v5.091h-1.474V-39.08H136.4a8.643,8.643,0,0,1,.944.045,4.02,4.02,0,0,1,.729.144,2.468,2.468,0,0,1,.594.269,3.74,3.74,0,0,1,.539.423,3.112,3.112,0,0,1,.935,2.321,3.256,3.256,0,0,1-1.043,2.464,3.55,3.55,0,0,1-1.8.9l3.508,5.307Zm-2.248-8.652a1.977,1.977,0,0,0-.648-1.637,2.944,2.944,0,0,0-1.727-.342h-1.925v4.3h1.925a2.076,2.076,0,0,0,2.375-2.32Z" transform="translate(0 63)"/></clipPath><clipPath id="g"><path class="a" d="M149.964-38.289l-.684,1.223c-.264-.156-.5-.284-.7-.386a3.565,3.565,0,0,0-.539-.225,5.478,5.478,0,0,0-1.637-.252,2.7,2.7,0,0,0-1.646.459,1.435,1.435,0,0,0-.62,1.214,1.479,1.479,0,0,0,.557,1.151,14.926,14.926,0,0,0,2.375,1.457,9.936,9.936,0,0,1,1.87,1.2,2.7,2.7,0,0,1,.918,2.159,3,3,0,0,1-1.053,2.419,4.269,4.269,0,0,1-2.851.891,5.766,5.766,0,0,1-2.194-.4,8.275,8.275,0,0,1-1.529-.882l.755-1.169q.414.288.765.486a4.084,4.084,0,0,0,.6.288,4.8,4.8,0,0,0,1.709.305,2.61,2.61,0,0,0,1.664-.467,1.607,1.607,0,0,0,.585-1.331,1.673,1.673,0,0,0-.18-.846,2.464,2.464,0,0,0-1.008-.971q-.215-.126-.71-.387t-1.268-.674q-2.537-1.368-2.537-3.112a2.781,2.781,0,0,1,1.08-2.285,4.417,4.417,0,0,1,2.842-.863,6.3,6.3,0,0,1,2,.288,7.7,7.7,0,0,1,1.44.7" transform="translate(0 63)"/></clipPath><clipPath id="h"><path class="a" d="M152.891-27.208h1.475V-39.08h-1.475Z" transform="translate(0 63)"/></clipPath><clipPath id="i"><path class="a" d="M168.228-33.2a6.329,6.329,0,0,1-1.6,4.263A4.654,4.654,0,0,1,164.8-27.6a7.127,7.127,0,0,1-2.564.4H158.3V-39.08h3.957a5.869,5.869,0,0,1,4.282,1.655,5.622,5.622,0,0,1,1.69,4.227Zm-1.547-.018a4.469,4.469,0,0,0-1.331-3.292,4.514,4.514,0,0,0-3.327-1.331h-2.249v9.389h2.249a4.228,4.228,0,0,0,3.2-1.079,4.7,4.7,0,0,0,.594-.782,5.79,5.79,0,0,0,.459-.927,6.414,6.414,0,0,0,.3-.989,4.707,4.707,0,0,0,.108-.989Z" transform="translate(0 63)"/></clipPath><clipPath id="j"><path class="a" d="M179.673-27.208H178.09l-1.223-3.508h-4.8l-1.223,3.508h-1.583l4.425-12.214h1.583l4.407,12.214ZM176.4-32.065,174.474-37.5l-1.942,5.432Z" transform="translate(0 63)"/></clipPath><clipPath id="k"><path class="a" d="M191.7-33.2a6.325,6.325,0,0,1-1.6,4.263,4.64,4.64,0,0,1-1.826,1.331,7.117,7.117,0,0,1-2.563.4h-3.939V-39.08h3.957a5.865,5.865,0,0,1,4.281,1.655A5.62,5.62,0,0,1,191.7-33.2Zm-1.547-.018a4.473,4.473,0,0,0-1.331-3.292,4.517,4.517,0,0,0-3.328-1.331h-2.248v9.389H185.5a4.231,4.231,0,0,0,3.2-1.079,4.7,4.7,0,0,0,.594-.782,5.788,5.788,0,0,0,.458-.927,6.418,6.418,0,0,0,.3-.989,4.707,4.707,0,0,0,.108-.989Z" transform="translate(0 63)"/></clipPath><clipPath id="l"><path class="a" d="M201.384-27.208h-6.836V-39.08h6.674v1.241h-5.2v3.957h4.3v1.241h-4.3v4.191h5.361v1.242" transform="translate(0 63)"/></clipPath><clipPath id="m"><path class="a" d="M218.663-33.2a6.325,6.325,0,0,1-1.6,4.263,4.644,4.644,0,0,1-1.825,1.331,7.125,7.125,0,0,1-2.563.4h-3.94V-39.08h3.957a5.865,5.865,0,0,1,4.281,1.655,5.62,5.62,0,0,1,1.691,4.227Zm-1.547-.018a4.469,4.469,0,0,0-1.331-3.292,4.515,4.515,0,0,0-3.328-1.331h-2.248v9.389h2.248a4.233,4.233,0,0,0,3.2-1.079,4.748,4.748,0,0,0,.593-.782,5.793,5.793,0,0,0,.459-.927,6.421,6.421,0,0,0,.3-.989,4.705,4.705,0,0,0,.107-.989Z" transform="translate(0 63)"/></clipPath><clipPath id="n"><path class="a" d="M232.374-33.144a6.1,6.1,0,0,1-1.691,4.425,5.65,5.65,0,0,1-4.263,1.745,5.708,5.708,0,0,1-4.281-1.745,6.1,6.1,0,0,1-1.69-4.425,6.075,6.075,0,0,1,1.69-4.407A5.7,5.7,0,0,1,226.42-39.3a5.646,5.646,0,0,1,4.263,1.745,6,6,0,0,1,1.691,4.407Zm-1.619,0a4.975,4.975,0,0,0-1.277-3.418A3.954,3.954,0,0,0,226.42-38a3.974,3.974,0,0,0-3.076,1.439,4.98,4.98,0,0,0-1.277,3.418,5.025,5.025,0,0,0,1.277,3.453,3.956,3.956,0,0,0,3.076,1.421,3.936,3.936,0,0,0,3.058-1.421,5.02,5.02,0,0,0,1.277-3.453Z" transform="translate(0 63)"/></clipPath><clipPath id="o"><path class="a" d="M247.269-35.573a4.462,4.462,0,0,1-.3,1.664,3.493,3.493,0,0,1-.846,1.268,3.7,3.7,0,0,1-1.331.8,5.191,5.191,0,0,1-1.753.279q-.234,0-.693-.036t-1.142-.108v4.5h-1.475V-39.08h3.723a3.91,3.91,0,0,1,2.9.935,3.514,3.514,0,0,1,.918,2.572Zm-1.529.09a2.5,2.5,0,0,0-.666-1.852,2.581,2.581,0,0,0-1.834-.5h-2.033v4.893a15.322,15.322,0,0,0,1.583.108,4.025,4.025,0,0,0,1.547-.234,2.118,2.118,0,0,0,1.025-.909,2.891,2.891,0,0,0,.378-1.5Z" transform="translate(0 63)"/></clipPath><clipPath id="p"><path class="a" d="M260.589-33.144a6.1,6.1,0,0,1-1.691,4.425,5.649,5.649,0,0,1-4.262,1.745,5.708,5.708,0,0,1-4.281-1.745,6.1,6.1,0,0,1-1.692-4.425,6.073,6.073,0,0,1,1.692-4.407,5.7,5.7,0,0,1,4.281-1.745,5.646,5.646,0,0,1,4.262,1.745,6,6,0,0,1,1.691,4.407Zm-1.619,0a4.975,4.975,0,0,0-1.277-3.418A3.954,3.954,0,0,0,254.636-38a3.971,3.971,0,0,0-3.076,1.439,4.975,4.975,0,0,0-1.277,3.418,5.02,5.02,0,0,0,1.277,3.453,3.953,3.953,0,0,0,3.076,1.421,3.934,3.934,0,0,0,3.057-1.421,5.02,5.02,0,0,0,1.277-3.453Z" transform="translate(0 63)"/></clipPath><clipPath id="q"><path class="a" d="M271.463-27.208h-1.691L266.5-32.3h-1.583v5.091h-1.475V-39.08h3.615a8.676,8.676,0,0,1,.945.045,4.026,4.026,0,0,1,.728.144,2.443,2.443,0,0,1,.593.269,3.639,3.639,0,0,1,.54.423,3.113,3.113,0,0,1,.936,2.321,3.256,3.256,0,0,1-1.044,2.464,3.551,3.551,0,0,1-1.8.9l3.507,5.307Zm-2.248-8.652a1.977,1.977,0,0,0-.648-1.637,2.944,2.944,0,0,0-1.727-.342h-1.924v4.3h1.924a2.076,2.076,0,0,0,2.375-2.32Z" transform="translate(0 63)"/></clipPath><clipPath id="r"><path class="a" d="M281.516-37.839h-3.957v10.631h-1.475V-37.839h-3.957V-39.08h9.389v1.241" transform="translate(0 63)"/></clipPath><clipPath id="s"><path class="a" d="M294.487-33.144a6.1,6.1,0,0,1-1.691,4.425,5.65,5.65,0,0,1-4.263,1.745,5.71,5.71,0,0,1-4.281-1.745,6.1,6.1,0,0,1-1.691-4.425,6.076,6.076,0,0,1,1.691-4.407,5.706,5.706,0,0,1,4.281-1.745,5.646,5.646,0,0,1,4.263,1.745,6,6,0,0,1,1.691,4.407Zm-1.619,0a4.975,4.975,0,0,0-1.277-3.418A3.954,3.954,0,0,0,288.533-38a3.974,3.974,0,0,0-3.076,1.439,4.98,4.98,0,0,0-1.277,3.418,5.025,5.025,0,0,0,1.277,3.453,3.956,3.956,0,0,0,3.076,1.421,3.936,3.936,0,0,0,3.058-1.421,5.02,5.02,0,0,0,1.277-3.453Z" transform="translate(0 63)"/></clipPath><clipPath id="t"><path class="a" d="M88-58.414H82.9v3.058h4.173v1.907H82.9v4.983H80.639V-60.338H88v1.924" transform="translate(0 63)"/></clipPath><clipPath id="u"><path class="a" d="M99.058-48.466H96.683L95.748-51.4H91.773L90.8-48.466H88.427l4.3-11.872h2.033l4.3,11.872Zm-3.922-4.857-1.385-4.3-1.367,4.3Z" transform="translate(0 63)"/></clipPath><clipPath id="v"><path class="a" d="M109.581-59.421l-.864,1.8a4.555,4.555,0,0,0-2.734-.828,3.822,3.822,0,0,0-2.824,1.1,3.717,3.717,0,0,0-1.1,2.77,4.162,4.162,0,0,0,1.169,3.076,4.208,4.208,0,0,0,3.112,1.151,7.093,7.093,0,0,0,2.608-.558l.414,1.907a7.488,7.488,0,0,1-1.6.575q-.45.092-.917.144a8.646,8.646,0,0,1-.99.054,6.175,6.175,0,0,1-4.3-1.475,6.083,6.083,0,0,1-2-4.748,5.967,5.967,0,0,1,1.816-4.443,6.127,6.127,0,0,1,4.479-1.655,6.035,6.035,0,0,1,3.724,1.133" transform="translate(0 63)"/></clipPath><clipPath id="w"><path class="a" d="M121.27-53.107a6.85,6.85,0,0,1-.36,2.5,3.391,3.391,0,0,1-1.277,1.511,5.761,5.761,0,0,1-3.346.863,5.845,5.845,0,0,1-3.363-.863,3.417,3.417,0,0,1-1.278-1.493,7.183,7.183,0,0,1-.341-2.518v-7.231h2.248v7.357q0,2.643,2.806,2.644A2.337,2.337,0,0,0,119-52.981v-7.357h2.267v7.231" transform="translate(0 63)"/></clipPath><clipPath id="x"><path class="a" d="M131.321-48.466H124.2V-60.338h2.266v9.947h4.857v1.925" transform="translate(0 63)"/></clipPath><clipPath id="y"><path class="a" d="M143.813-54.438a5.956,5.956,0,0,1-1.637,4.227,6.272,6.272,0,0,1-4.8,1.745h-4.389V-60.338h4.407a6.273,6.273,0,0,1,4.8,1.726,5.887,5.887,0,0,1,1.619,4.174Zm-2.447.018A3.762,3.762,0,0,0,140-57.64a4.776,4.776,0,0,0-2.843-.7h-1.8v7.879h1.8a4.389,4.389,0,0,0,3.112-1.025,3.816,3.816,0,0,0,1.1-2.932Z" transform="translate(0 63)"/></clipPath><clipPath id="z"><path class="a" d="M154.926-48.466h-2.375l-.935-2.932h-3.975l-.972,2.932h-2.374l4.3-11.872h2.033l4.3,11.872ZM151-53.323l-1.385-4.3-1.367,4.3Z" transform="translate(0 63)"/></clipPath><clipPath id="aa"><path class="a" d="M167.32-54.438a5.956,5.956,0,0,1-1.637,4.227,6.272,6.272,0,0,1-4.8,1.745h-4.389V-60.338H160.9a6.273,6.273,0,0,1,4.8,1.726,5.887,5.887,0,0,1,1.619,4.174Zm-2.447.018a3.76,3.76,0,0,0-1.367-3.22,4.771,4.771,0,0,0-2.842-.7h-1.8v7.879h1.8a4.389,4.389,0,0,0,3.112-1.025,3.816,3.816,0,0,0,1.1-2.932Z" transform="translate(0 63)"/></clipPath><clipPath id="ab"><path class="a" d="M176.85-48.466h-7.465V-60.338h7.231v1.924h-4.965v2.932h4.066v1.925h-4.066v3.166h5.2v1.925" transform="translate(0 63)"/></clipPath><clipPath id="ac"><path class="a" d="M194.281-54.438a5.956,5.956,0,0,1-1.637,4.227,6.272,6.272,0,0,1-4.8,1.745h-4.389V-60.338h4.407a6.273,6.273,0,0,1,4.8,1.726,5.887,5.887,0,0,1,1.619,4.174Zm-2.446.018a3.761,3.761,0,0,0-1.368-3.22,4.769,4.769,0,0,0-2.842-.7h-1.8v7.879h1.8a4.389,4.389,0,0,0,3.112-1.025,3.816,3.816,0,0,0,1.1-2.932Z" transform="translate(0 63)"/></clipPath><clipPath id="ad"><path class="a" d="M203.811-48.466h-7.465V-60.338h7.231v1.924h-4.964v2.932h4.065v1.925h-4.065v3.166h5.2v1.925" transform="translate(0 63)"/></clipPath><clipPath id="ae"><path class="a" d="M219.371-59.421l-.863,1.8a4.559,4.559,0,0,0-2.734-.828,3.819,3.819,0,0,0-2.824,1.1,3.714,3.714,0,0,0-1.1,2.77,4.162,4.162,0,0,0,1.169,3.076,4.209,4.209,0,0,0,3.113,1.151,7.1,7.1,0,0,0,2.608-.558l.413,1.907a7.469,7.469,0,0,1-1.6.575q-.448.092-.917.144a8.628,8.628,0,0,1-.989.054,6.173,6.173,0,0,1-4.3-1.475,6.084,6.084,0,0,1-2-4.748,5.968,5.968,0,0,1,1.817-4.443,6.124,6.124,0,0,1,4.479-1.655,6.03,6.03,0,0,1,3.723,1.133" transform="translate(0 63)"/></clipPath><clipPath id="af"><path class="a" d="M221.347-48.466h2.267V-60.338h-2.267Z" transform="translate(0 63)"/></clipPath><clipPath id="ag"><path class="a" d="M233.277-60.9h-1.565l-1.169-1.169-1.17,1.169h-1.565l2.015-2.1h1.439l2.015,2.1Zm.989,12.43H226.8V-60.338h7.231v1.924h-4.964v2.932h4.065v1.925h-4.065v3.166h5.2v1.925Z" transform="translate(0 63)"/></clipPath><clipPath id="ah"><path class="a" d="M246.779-48.358H244.4l-5.09-7.681q-.036-.054-.1-.171t-.153-.3a1.177,1.177,0,0,0-.072-.126,1.177,1.177,0,0,1-.072-.126,1.755,1.755,0,0,1-.162-.413v8.706H236.6V-60.338h2.609l4.982,7.806c.013.024.051.105.117.243l.117.243.108.306.108.216v-8.814h2.141v11.98" transform="translate(0 63)"/></clipPath><clipPath id="ai"><path class="a" d="M259-59.421l-.864,1.8a4.557,4.557,0,0,0-2.734-.828,3.822,3.822,0,0,0-2.824,1.1,3.717,3.717,0,0,0-1.1,2.77,4.162,4.162,0,0,0,1.169,3.076,4.208,4.208,0,0,0,3.112,1.151,7.089,7.089,0,0,0,2.608-.558l.414,1.907a7.488,7.488,0,0,1-1.6.575q-.45.092-.917.144a8.646,8.646,0,0,1-.99.054,6.177,6.177,0,0,1-4.3-1.475,6.083,6.083,0,0,1-2-4.748A5.967,5.967,0,0,1,250.8-58.9a6.127,6.127,0,0,1,4.479-1.655A6.035,6.035,0,0,1,259-59.421" transform="translate(0 63)"/></clipPath><clipPath id="aj"><path class="a" d="M260.975-48.466h2.266V-60.338h-2.266Z" transform="translate(0 63)"/></clipPath><clipPath id="ak"><path class="a" d="M275.476-48.466H273.1l-.935-2.932h-3.976l-.971,2.932h-2.374l4.3-11.872h2.033l4.3,11.872Zm-3.921-4.857-1.385-4.3-1.367,4.3Z" transform="translate(0 63)"/></clipPath><clipPath id="al"><path class="a" d="M284.615-59.547l-.9,2.033a8.333,8.333,0,0,0-3.075-.846,2.37,2.37,0,0,0-1.278.3.908.908,0,0,0-.467.8q0,.646,1.133,1.259a16.1,16.1,0,0,1,3.543,2.284A2.836,2.836,0,0,1,284.4-51.6a3.019,3.019,0,0,1-1.089,2.473,4.746,4.746,0,0,1-3.084.89q-.27,0-.54-.018t-.522-.054a9.32,9.32,0,0,1-2.482-.827q-.108-.054-.3-.144t-.476-.216l.953-2.086q.576.306,1.007.521a6.631,6.631,0,0,0,.684.306,4.807,4.807,0,0,0,1.709.342,2.169,2.169,0,0,0,1.268-.324,1.007,1.007,0,0,0,.459-.863q0-.684-1.044-1.277l-1.835-1.044a8.284,8.284,0,0,1-2.158-1.6,2.572,2.572,0,0,1-.594-1.69,3.022,3.022,0,0,1,.468-1.655,2.078,2.078,0,0,1,.369-.468,4.118,4.118,0,0,1,.512-.414,5.172,5.172,0,0,1,2.986-.791,7.773,7.773,0,0,1,2.231.306c.24.072.5.165.773.279s.582.248.918.4" transform="translate(0 63)"/></clipPath><clipPath id="am"><path class="a" d="M57.647-32.179v-15.68H55.685c-.307,1.264-1.253,4.741-1.253,4.741a36.628,36.628,0,0,0-3.994-2.247,22.19,22.19,0,0,0-10.005-2.494,23.3,23.3,0,0,0-12.044,3.248,22.746,22.746,0,0,0-8.63,9.091A26.791,26.791,0,0,0,16.64-22.643c0,8.826,5.676,17.627,12.731,20.825C35.361.876,41.909.919,48.894-2.028c1.661-.7,2.436-1.277,2.284-1.928a.619.619,0,0,0-.951-.452,17.888,17.888,0,0,1-1.916.849c-5.324,2.207-25.722,5.325-23.7-23.831a27.469,27.469,0,0,1,1.766-8.218A16.021,16.021,0,0,1,32.4-43.295,15.87,15.87,0,0,1,40.995-45.7a15.043,15.043,0,0,1,9.7,3.214q4.023,3.223,6.171,10.31h.78" transform="translate(0 63)"/></clipPath><clipPath id="an"><path class="a" d="M4.376-52.643v24.97H9.444V-42.922h5.574a4.26,4.26,0,0,1,4.438,4.008h.63v-9.1H18.8l-.843,2.887H9.444v-9.26c0-2.211.6-2.4,2.9-2.4H22.2V-59H0v1.013c4.238.738,4.376.738,4.376,5.345" transform="translate(0 63)"/></clipPath></defs><g transform="translate(578 3842)"><g class="b"><path class="c" d="M75.675-44.08H94.956v22.214H75.675Z" transform="translate(0 63)"/></g><g class="d"><path class="c" d="M88.56-44.08h19.731V-22.1H88.56Z" transform="translate(0 63)"/></g><g class="e"><path class="c" d="M102.2-44.08h11.475v21.872H102.2Z" transform="translate(0 63)"/></g><g class="f"><path class="c" d="M105.789-44.08H125.97V-21.9H105.789Z" transform="translate(0 63)"/></g><g class="g"><path class="c" d="M118.108-44.08h16.835v21.872H118.108Z" transform="translate(0 63)"/></g><g class="h"><path class="c" d="M127.788-44.08H145.81v21.872H127.788Z" transform="translate(0 63)"/></g><g class="i"><path class="c" d="M137.229-44.278h17.735v22.3H137.229Z" transform="translate(0 63)"/></g><g class="j"><path class="c" d="M147.891-44.08h11.475v21.872H147.891Z" transform="translate(0 63)"/></g><g class="k"><path class="c" d="M153.3-44.08h19.929v21.872H153.3Z" transform="translate(0 63)"/></g><g class="l"><path class="c" d="M164.258-44.422h20.415v22.214H164.258Z" transform="translate(0 63)"/></g><g class="m"><path class="c" d="M176.773-44.08H196.7v21.872H176.773Z" transform="translate(0 63)"/></g><g class="n"><path class="c" d="M189.548-44.08h16.836v21.872H189.548Z" transform="translate(0 63)"/></g><g class="o"><path class="c" d="M203.734-44.08h19.929v21.872H203.734Z" transform="translate(0 63)"/></g><g class="p"><path class="c" d="M215.449-44.3h21.925v22.322H215.449Z" transform="translate(0 63)"/></g><g class="q"><path class="c" d="M234.732-44.08h17.537v21.872H234.732Z" transform="translate(0 63)"/></g><g class="r"><path class="c" d="M243.663-44.3h21.926v22.322H243.663Z" transform="translate(0 63)"/></g><g class="s"><path class="c" d="M258.441-44.08h18.022v21.872H258.441Z" transform="translate(0 63)"/></g><g class="t"><path class="c" d="M267.127-44.08h19.389v21.872H267.127Z" transform="translate(0 63)"/></g><g class="u"><path class="c" d="M277.561-44.3h21.926v22.322H277.561Z" transform="translate(0 63)"/></g><g class="v"><path class="c" d="M75.639-65.338H93v21.872H75.639Z" transform="translate(0 63)"/></g><g class="w"><path class="c" d="M83.427-65.338h20.631v21.872H83.427Z" transform="translate(0 63)"/></g><g class="x"><path class="c" d="M94.562-65.554h20.019v22.321H94.562Z" transform="translate(0 63)"/></g><g class="y"><path class="c" d="M106.305-65.338H126.27v22.1H106.305Z" transform="translate(0 63)"/></g><g class="z"><path class="c" d="M119.2-65.338h17.123v21.872H119.2Z" transform="translate(0 63)"/></g><g class="aa"><path class="c" d="M127.984-65.338h20.829v21.872H127.984Z" transform="translate(0 63)"/></g><g class="ab"><path class="c" d="M139.295-65.338h20.631v21.872H139.295Z" transform="translate(0 63)"/></g><g class="ac"><path class="c" d="M151.491-65.338H172.32v21.872H151.491Z" transform="translate(0 63)"/></g><g class="ad"><path class="c" d="M164.385-65.338H181.85v21.872H164.385Z" transform="translate(0 63)"/></g><g class="ae"><path class="c" d="M178.452-65.338h20.829v21.872H178.452Z" transform="translate(0 63)"/></g><g class="af"><path class="c" d="M191.346-65.338h17.465v21.872H191.346Z" transform="translate(0 63)"/></g><g class="ag"><path class="c" d="M204.352-65.554h20.019v22.321H204.352Z" transform="translate(0 63)"/></g><g class="ah"><path class="c" d="M216.347-65.338h12.267v21.872H216.347Z" transform="translate(0 63)"/></g><g class="ai"><path class="c" d="M221.8-68h17.465v24.534H221.8Z" transform="translate(0 63)"/></g><g class="aj"><path class="c" d="M231.6-65.338h20.182v21.98H231.6Z" transform="translate(0 63)"/></g><g class="ak"><path class="c" d="M243.98-65.554H264v22.321H243.98Z" transform="translate(0 63)"/></g><g class="al"><path class="c" d="M255.975-65.338h12.266v21.872H255.975Z" transform="translate(0 63)"/></g><g class="am"><path class="c" d="M259.846-65.338h20.63v21.872h-20.63Z" transform="translate(0 63)"/></g><g class="an"><path class="c" d="M270.909-65.536h18.706v22.3H270.909Z" transform="translate(0 63)"/></g><g class="ao" transform="translate(0 -13)"><path class="c" d="M11.64-52.859H62.647V5.193H11.64Z" transform="translate(0 63)"/></g><g class="ap" transform="translate(0 -13)"><path class="c" d="M-5-64H27.2v41.328H-5Z" transform="translate(0 63)"/></g></g></svg>